<?xml version="1.0" encoding="UTF-8" standalone="no"?>
<svg xmlns="http://www.w3.org/2000/svg" xmlns:xlink="http://www.w3.org/1999/xlink" width="800" height="600">
  <rect width="800" height="600" fill="#f8f9fa"/>
  <text x="400" y="40" font-family="Arial" font-size="24" text-anchor="middle" font-weight="bold">Transformer Models Performance Comparison</text>
  
  <!-- Axes -->
  <line x1="100" y1="500" x2="700" y2="500" stroke="black" stroke-width="2"/>
  <line x1="100" y1="500" x2="100" y2="100" stroke="black" stroke-width="2"/>
  
  <!-- X-axis labels -->
  <text x="200" y="530" font-family="Arial" font-size="16" text-anchor="middle">DistilBERT</text>
  <text x="350" y="530" font-family="Arial" font-size="16" text-anchor="middle">BioBERT</text>
  <text x="500" y="530" font-family="Arial" font-size="16" text-anchor="middle">PubMedBERT</text>
  <text x="650" y="530" font-family="Arial" font-size="16" text-anchor="middle">Ensemble</text>
  
  <!-- Y-axis labels -->
  <text x="80" y="500" font-family="Arial" font-size="14" text-anchor="end">0.70</text>
  <text x="80" y="400" font-family="Arial" font-size="14" text-anchor="end">0.75</text>
  <text x="80" y="300" font-family="Arial" font-size="14" text-anchor="end">0.80</text>
  <text x="80" y="200" font-family="Arial" font-size="14" text-anchor="end">0.85</text>
  <text x="80" y="100" font-family="Arial" font-size="14" text-anchor="end">0.90</text>
  
  <!-- Grid lines -->
  <line x1="100" y1="400" x2="700" y2="400" stroke="#e0e0e0" stroke-width="1"/>
  <line x1="100" y1="300" x2="700" y2="300" stroke="#e0e0e0" stroke-width="1"/>
  <line x1="100" y1="200" x2="700" y2="200" stroke="#e0e0e0" stroke-width="1"/>
  <line x1="100" y1="100" x2="700" y2="100" stroke="#e0e0e0" stroke-width="1"/>
  
  <!-- Bars for Accuracy -->
  <rect x="170" y="220" width="60" height="280" fill="#4285F4" opacity="0.7"/>
  <rect x="320" y="180" width="60" height="320" fill="#4285F4" opacity="0.7"/>
  <rect x="470" y="160" width="60" height="340" fill="#4285F4" opacity="0.7"/>
  <rect x="620" y="120" width="60" height="380" fill="#4285F4" opacity="0.7"/>
  
  <!-- Accuracy values -->
  <text x="200" y="210" font-family="Arial" font-size="14" text-anchor="middle" fill="black">0.82</text>
  <text x="350" y="170" font-family="Arial" font-size="14" text-anchor="middle" fill="black">0.84</text>
  <text x="500" y="150" font-family="Arial" font-size="14" text-anchor="middle" fill="black">0.85</text>
  <text x="650" y="110" font-family="Arial" font-size="14" text-anchor="middle" fill="black">0.88</text>
  
  <!-- Legend -->
  <rect x="550" y="50" width="20" height="20" fill="#4285F4" opacity="0.7"/>
  <text x="580" y="65" font-family="Arial" font-size="14">Accuracy</text>
  
  <!-- Axis titles -->
  <text x="400" y="570" font-family="Arial" font-size="18" text-anchor="middle">Model Type</text>
  <text x="40" y="300" font-family="Arial" font-size="18" text-anchor="middle" transform="rotate(-90, 40, 300)">Performance Score</text>
</svg>